HIERARCHY
ROOT Hips
{
	OFFSET 0.000000 100.481300 0.000000
	CHANNELS 6 Xposition Yposition Zposition Xrotation Yrotation Zrotation
	JOINT Spine
	{
		OFFSET -0.279200 12.230698 -2.892100
		CHANNELS 3 Xrotation Yrotation Zrotation
		JOINT Spine1
		{
			OFFSET -0.325700 14.269203 -3.374200
			CHANNELS 3 Xrotation Yrotation Zrotation
			JOINT Spine2
			{
				OFFSET -0.372300 16.307602 -0.352600
				CHANNELS 3 Xrotation Yrotation Zrotation
				JOINT Neck
				{
					OFFSET -0.418800 17.814194 8.416900
					CHANNELS 3 Xrotation Yrotation Zrotation
					JOINT Head
					{
						OFFSET 0.000000 7.031097 3.806800
						CHANNELS 3 Xrotation Yrotation Zrotation
						JOINT HeadTop_End
						{
							OFFSET 0.000000 24.646606 12.978600
							CHANNELS 3 Xrotation Yrotation Zrotation
							End Site
							{
								OFFSET 0.000000 27.854965 0.000000
							}
						}
					}
				}
				JOINT LeftShoulder
				{
					OFFSET 16.952999 14.495407 -7.737500
					CHANNELS 3 Xrotation Yrotation Zrotation
					JOINT LeftArm
					{
						OFFSET 9.308998 -2.777710 0.208600
						CHANNELS 3 Xrotation Yrotation Zrotation
						JOINT LeftForeArm
						{
							OFFSET 29.972298 0.000000 0.000000
							CHANNELS 3 Xrotation Yrotation Zrotation
							JOINT LeftHand
							{
								OFFSET 26.026505 0.000000 0.000000
								CHANNELS 3 Xrotation Yrotation Zrotation
								JOINT LeftHandThumb1
								{
									OFFSET 12.240501 -7.147949 9.207150
									CHANNELS 3 Xrotation Yrotation Zrotation
									JOINT LeftHandThumb2
									{
										OFFSET 4.138618 -2.389435 2.389433
										CHANNELS 3 Xrotation Yrotation Zrotation
										JOINT LeftHandThumb3
										{
											OFFSET 2.726913 -1.574387 1.574386
											CHANNELS 3 Xrotation Yrotation Zrotation
											JOINT LeftHandThumb4
											{
												OFFSET 3.941010 -2.275345 2.275342
												CHANNELS 3 Xrotation Yrotation Zrotation
												End Site
												{
													OFFSET -0.005798 5.087799 0.009903
												}
											}
										}
									}
								}
								JOINT LeftHandIndex1
								{
									OFFSET 24.424698 -1.985611 5.953459
									CHANNELS 3 Xrotation Yrotation Zrotation
									JOINT LeftHandIndex2
									{
										OFFSET 6.426697 0.000000 0.000000
										CHANNELS 3 Xrotation Yrotation Zrotation
										JOINT LeftHandIndex3
										{
											OFFSET 5.337898 0.000000 0.000000
											CHANNELS 3 Xrotation Yrotation Zrotation
											JOINT LeftHandIndex4
											{
												OFFSET 4.409401 0.000000 0.000000
												CHANNELS 3 Xrotation Yrotation Zrotation
												End Site
												{
													OFFSET 0.000000 4.409363 0.014373
												}
											}
										}
									}
								}
								JOINT LeftHandMiddle1
								{
									OFFSET 23.810104 0.000000 0.000000
									CHANNELS 3 Xrotation Yrotation Zrotation
									JOINT LeftHandMiddle2
									{
										OFFSET 7.176498 0.000000 0.000000
										CHANNELS 3 Xrotation Yrotation Zrotation
										JOINT LeftHandMiddle3
										{
											OFFSET 6.774902 0.000000 0.000000
											CHANNELS 3 Xrotation Yrotation Zrotation
											JOINT LeftHandMiddle4
											{
												OFFSET 5.403328 0.000000 0.000000
												CHANNELS 3 Xrotation Yrotation Zrotation
												End Site
												{
													OFFSET -0.027702 5.403244 0.017414
												}
											}
										}
									}
								}
								JOINT LeftHandRing1
								{
									OFFSET 22.908401 -0.839279 -6.020567
									CHANNELS 3 Xrotation Yrotation Zrotation
									JOINT LeftHandRing2
									{
										OFFSET 6.337502 0.000000 0.000000
										CHANNELS 3 Xrotation Yrotation Zrotation
										JOINT LeftHandRing3
										{
											OFFSET 5.779297 0.000000 0.000000
											CHANNELS 3 Xrotation Yrotation Zrotation
											JOINT LeftHandRing4
											{
												OFFSET 4.965698 0.000000 0.000000
												CHANNELS 3 Xrotation Yrotation Zrotation
												End Site
												{
													OFFSET 0.000000 4.965668 0.016186
												}
											}
										}
									}
								}
								JOINT LeftHandPinky1
								{
									OFFSET 20.037003 -1.530319 -10.950146
									CHANNELS 3 Xrotation Yrotation Zrotation
									JOINT LeftHandPinky2
									{
										OFFSET 5.254700 0.000000 0.000000
										CHANNELS 3 Xrotation Yrotation Zrotation
										JOINT LeftHandPinky3
										{
											OFFSET 4.810204 0.000000 0.000000
											CHANNELS 3 Xrotation Yrotation Zrotation
											JOINT LeftHandPinky4
											{
												OFFSET 3.647202 0.000000 0.000000
												CHANNELS 3 Xrotation Yrotation Zrotation
												End Site
												{
													OFFSET 0.000000 3.647186 0.011889
												}
											}
										}
									}
								}
							}
						}
					}
				}
				JOINT RightShoulder
				{
					OFFSET -15.141001 14.495407 -7.737500
					CHANNELS 3 Xrotation Yrotation Zrotation
					JOINT RightArm
					{
						OFFSET -9.308998 -2.777710 0.208500
						CHANNELS 3 Xrotation Yrotation Zrotation
						JOINT RightForeArm
						{
							OFFSET -29.972300 0.000000 0.000000
							CHANNELS 3 Xrotation Yrotation Zrotation
							JOINT RightHand
							{
								OFFSET -26.026505 0.000000 0.000000
								CHANNELS 3 Xrotation Yrotation Zrotation
								JOINT RightHandThumb1
								{
									OFFSET -12.240601 -7.148026 9.207092
									CHANNELS 3 Xrotation Yrotation Zrotation
									JOINT RightHandThumb2
									{
										OFFSET -4.138618 -2.389435 2.389433
										CHANNELS 3 Xrotation Yrotation Zrotation
										JOINT RightHandThumb3
										{
											OFFSET -2.726974 -1.574417 1.574421
											CHANNELS 3 Xrotation Yrotation Zrotation
											JOINT RightHandThumb4
											{
												OFFSET -3.941010 -2.275345 2.275343
												CHANNELS 3 Xrotation Yrotation Zrotation
												End Site
												{
													OFFSET 0.005814 5.087799 0.009927
												}
											}
										}
									}
								}
								JOINT RightHandIndex1
								{
									OFFSET -24.424698 -1.985657 5.953444
									CHANNELS 3 Xrotation Yrotation Zrotation
									JOINT RightHandIndex2
									{
										OFFSET -6.426697 0.000000 0.000000
										CHANNELS 3 Xrotation Yrotation Zrotation
										JOINT RightHandIndex3
										{
											OFFSET -5.337898 0.000000 0.000000
											CHANNELS 3 Xrotation Yrotation Zrotation
											JOINT RightHandIndex4
											{
												OFFSET -4.409401 0.000000 0.000000
												CHANNELS 3 Xrotation Yrotation Zrotation
												End Site
												{
													OFFSET 0.000000 4.409363 0.014408
												}
											}
										}
									}
								}
								JOINT RightHandMiddle1
								{
									OFFSET -23.810097 0.000000 0.000000
									CHANNELS 3 Xrotation Yrotation Zrotation
									JOINT RightHandMiddle2
									{
										OFFSET -7.176498 0.000000 0.000000
										CHANNELS 3 Xrotation Yrotation Zrotation
										JOINT RightHandMiddle3
										{
											OFFSET -6.774902 0.000000 0.000000
											CHANNELS 3 Xrotation Yrotation Zrotation
											JOINT RightHandMiddle4
											{
												OFFSET -5.403328 0.000000 0.000000
												CHANNELS 3 Xrotation Yrotation Zrotation
												End Site
												{
													OFFSET 0.027702 5.403244 0.017457
												}
											}
										}
									}
								}
								JOINT RightHandRing1
								{
									OFFSET -22.908302 -0.839325 -6.020576
									CHANNELS 3 Xrotation Yrotation Zrotation
									JOINT RightHandRing2
									{
										OFFSET -6.337502 0.000000 0.000000
										CHANNELS 3 Xrotation Yrotation Zrotation
										JOINT RightHandRing3
										{
											OFFSET -5.779297 0.000000 0.000000
											CHANNELS 3 Xrotation Yrotation Zrotation
											JOINT RightHandRing4
											{
												OFFSET -4.965698 0.000000 0.000000
												CHANNELS 3 Xrotation Yrotation Zrotation
												End Site
												{
													OFFSET 0.000000 4.965668 0.016226
												}
											}
										}
									}
								}
								JOINT RightHandPinky1
								{
									OFFSET -20.037003 -1.530334 -10.950259
									CHANNELS 3 Xrotation Yrotation Zrotation
									JOINT RightHandPinky2
									{
										OFFSET -5.254700 0.000000 0.000000
										CHANNELS 3 Xrotation Yrotation Zrotation
										JOINT RightHandPinky3
										{
											OFFSET -4.810204 0.000000 0.000000
											CHANNELS 3 Xrotation Yrotation Zrotation
											JOINT RightHandPinky4
											{
												OFFSET -3.647202 0.000000 0.000000
												CHANNELS 3 Xrotation Yrotation Zrotation
												End Site
												{
													OFFSET 0.000000 3.647186 0.011917
												}
											}
										}
									}
								}
							}
						}
					}
				}
			}
		}
	}
	JOINT LeftUpLeg
	{
		OFFSET 15.427100 -6.655098 0.678600
		CHANNELS 3 Xrotation Yrotation Zrotation
		JOINT LeftLeg
		{
			OFFSET 4.081073 -39.591068 13.024000
			CHANNELS 3 Xrotation Yrotation Zrotation
			JOINT LeftFoot
			{
				OFFSET -4.081074 -37.707932 -15.979700
				CHANNELS 3 Xrotation Yrotation Zrotation
				JOINT LeftToeBase
				{
					OFFSET 5.346399 -15.068900 20.645000
					CHANNELS 3 Xrotation Yrotation Zrotation
					JOINT LeftToe_End
					{
						OFFSET 2.754700 0.931300 11.300900
						CHANNELS 3 Xrotation Yrotation Zrotation
						End Site
						{
							OFFSET 0.000000 11.669021 0.000000
						}
					}
				}
			}
		}
	}
	JOINT RightUpLeg
	{
		OFFSET -15.569500 -6.655098 0.678600
		CHANNELS 3 Xrotation Yrotation Zrotation
		JOINT RightLeg
		{
			OFFSET -4.081825 -39.591045 13.023800
			CHANNELS 3 Xrotation Yrotation Zrotation
			JOINT RightFoot
			{
				OFFSET 4.081824 -37.707954 -15.979600
				CHANNELS 3 Xrotation Yrotation Zrotation
				JOINT RightToeBase
				{
					OFFSET -5.346400 -15.068900 20.645000
					CHANNELS 3 Xrotation Yrotation Zrotation
					JOINT RightToe_End
					{
						OFFSET -2.754700 0.931300 11.300900
						CHANNELS 3 Xrotation Yrotation Zrotation
						End Site
						{
							OFFSET 0.000000 11.669021 0.000000
						}
					}
				}
			}
		}
	}
}
MOTION
Frames: 4
Frame Time: 0.033333
1.490601 71.128311 3.621197 11.347479 -61.423577 13.779347 4.058828 -0.554822 -3.784674 9.140557 0.105041 -1.737010 9.141051 -0.096674 -1.717418 -1.090925 8.190218 -7.309129 -9.149429 37.253320 -14.101515 -0.000000 -0.000001 -0.000001 0.957033 0.202788 -9.937429 -58.286157 -5.008006 -29.647870 -0.000018 -45.518204 -0.000021 -23.059197 1.989988 -2.472457 8.808542 16.047034 -3.522853 9.281897 29.460378 1.375863 2.069965 12.309494 3.416053 0.000002 0.000001 -0.000000 0.166711 1.509019 -12.608630 0.166761 1.508992 -12.608605 0.041795 0.759098 -6.303220 -0.000001 -0.000000 -0.000001 0.166300 1.507129 -12.592623 0.167156 1.510873 -12.624621 0.041786 0.759098 -6.303213 0.000002 0.000002 -0.000001 0.166711 1.509019 -12.608630 0.166759 1.508993 -12.608607 0.041798 0.759098 -6.303214 -0.000001 -0.000002 -0.000001 1.037361 5.469125 -12.151223 0.162232 -2.546794 -13.107104 0.041789 0.759102 -6.303207 -0.000002 -0.000001 -0.000004 2.962172 6.406968 11.417866 -60.455650 59.640283 76.146562 0.001104 93.191128 -0.001078 -7.120993 1.267648 -10.281323 16.092843 -1.956982 7.389340 38.850458 -40.011002 9.787806 13.450194 -17.209630 -0.499294 -0.000000 0.000005 0.000001 7.607989 -6.917004 95.461811 7.607972 -6.917002 95.461818 2.260409 -5.134299 47.500667 -0.000001 0.000002 -0.000000 7.607989 -6.917003 95.461811 7.607969 -6.917006 95.461818 2.260397 -5.134315 47.500653 -0.000002 -0.000002 0.000002 7.607988 -6.916994 95.461818 7.607966 -6.917002 95.461818 2.260419 -5.134300 47.500663 0.000002 0.000003 -0.000003 7.607989 -6.917004 95.461811 7.607978 -6.917014 95.461818 2.260409 -5.134298 47.500667 0.000001 0.000002 -0.000004 -60.860961 11.209721 42.176053 45.697562 0.624235 -0.877709 12.864631 -0.679244 -16.991139 0.005874 0.000025 0.000004 0.000000 -0.000000 -0.000000 -37.426500 5.114298 -21.532224 68.751981 5.503413 1.514030 -34.904876 -3.085825 9.060862 -0.005316 0.000045 -0.000003 0.000000 -0.000001 0.000000 
1.437596 70.866646 2.809873 12.004359 -61.671957 14.875437 3.905709 -0.641125 -3.871069 8.985922 -0.066727 -1.816839 8.982905 -0.270331 -1.797121 -1.105733 8.318771 -7.544466 -9.155989 37.682120 -14.161059 -0.000001 0.000000 0.000000 0.966404 0.213218 -9.988828 -57.632064 -4.408962 -28.840798 0.000002 -44.857981 0.000008 -23.247845 2.190755 -2.524638 8.808538 16.047036 -3.522851 9.281895 29.460382 1.375865 2.069962 12.309495 3.416059 0.000000 -0.000004 0.000001 0.166708 1.509018 -12.608633 0.166758 1.508994 -12.608603 0.041796 0.759095 -6.303214 0.000001 0.000000 -0.000002 0.166303 1.507130 -12.592621 0.167161 1.510873 -12.624631 0.041786 0.759098 -6.303217 -0.000001 0.000001 0.000001 0.166708 1.509018 -12.608631 0.166758 1.508990 -12.608609 0.041797 0.759097 -6.303211 0.000000 -0.000002 -0.000001 1.037363 5.469123 -12.151223 0.162233 -2.546793 -13.107102 0.041793 0.759104 -6.303208 0.000000 0.000000 -0.000002 3.019483 6.706402 11.395837 -59.961998 60.152438 75.786959 0.003274 93.221495 -0.003251 -6.947608 1.254392 -10.296201 16.092841 -1.956979 7.389336 38.850464 -40.011009 9.787809 13.450195 -17.209628 -0.499296 0.000000 -0.000002 -0.000000 7.607986 -6.917002 95.461811 7.607968 -6.917003 95.461818 2.260416 -5.134298 47.500667 0.000001 0.000001 -0.000002 7.607986 -6.917001 95.461804 7.607971 -6.916999 95.461818 2.260397 -5.134307 47.500656 0.000002 -0.000003 0.000001 7.607988 -6.916997 95.461818 7.607967 -6.917003 95.461818 2.260412 -5.134298 47.500667 0.000001 0.000000 -0.000001 7.607986 -6.917002 95.461804 7.607982 -6.917009 95.461818 2.260412 -5.134297 47.500667 0.000002 0.000001 -0.000001 -60.700909 11.189685 42.277942 45.040887 1.144289 -0.905251 13.553903 -0.787249 -17.394033 0.006036 0.000009 -0.000002 0.000000 0.000000 -0.000000 -38.600322 5.553545 -21.222564 69.710652 5.426352 1.495312 -35.113330 -2.977857 8.787919 -0.005316 0.000045 -0.000003 0.000000 -0.000001 -0.000000 
1.381321 70.805443 2.019016 12.562258 -61.997600 15.860215 3.855165 -0.764425 -3.905846 8.879446 -0.262888 -1.838847 8.872672 -0.461110 -1.819513 -1.131097 8.448576 -7.758103 -9.322885 38.140453 -14.074456 0.000002 -0.000001 0.000001 0.982057 0.298295 -10.085691 -57.081131 -3.704055 -28.104885 -0.000017 -44.286195 -0.000020 -23.134399 2.410445 -2.286956 8.808542 16.047036 -3.522853 9.281894 29.460375 1.375868 2.069965 12.309495 3.416057 -0.000002 -0.000000 -0.000000 0.166710 1.509019 -12.608627 0.166758 1.508991 -12.608609 0.041795 0.759098 -6.303216 -0.000001 -0.000002 -0.000002 0.166303 1.507129 -12.592617 0.167156 1.510873 -12.624624 0.041785 0.759097 -6.303218 0.000001 -0.000001 0.000000 0.166710 1.509019 -12.608629 0.166761 1.508991 -12.608609 0.041795 0.759096 -6.303214 0.000000 0.000001 -0.000001 1.037362 5.469124 -12.151220 0.162233 -2.546794 -13.107106 0.041792 0.759105 -6.303213 -0.000001 0.000002 -0.000000 3.021382 6.721898 11.410204 -59.811939 60.907181 75.675272 0.001909 93.256001 -0.001963 -6.790774 1.237333 -10.269234 16.092839 -1.956979 7.389338 38.850464 -40.011006 9.787805 13.450194 -17.209626 -0.499295 -0.000001 0.000001 -0.000000 7.607986 -6.917002 95.461811 7.607965 -6.916998 95.461818 2.260412 -5.134301 47.500663 0.000002 0.000001 -0.000001 7.607986 -6.917001 95.461811 7.607969 -6.917003 95.461818 2.260401 -5.134307 47.500660 0.000003 -0.000003 0.000001 7.607988 -6.916998 95.461818 7.607964 -6.916997 95.461818 2.260413 -5.134302 47.500670 0.000003 0.000003 -0.000003 7.607986 -6.917002 95.461811 7.607975 -6.917010 95.461818 2.260411 -5.134296 47.500667 0.000002 0.000000 -0.000000 -60.244973 11.339298 42.382557 44.102736 1.758679 -0.929640 14.307962 -0.921204 -17.865115 0.006088 -0.000016 0.000002 -0.000000 -0.000000 -0.000000 -39.607458 5.837308 -20.827590 70.303820 5.404068 1.448531 -35.120662 -2.810315 8.439253 -0.005316 0.000047 -0.000003 -0.000000 -0.000001 -0.000000 
1.309900 70.931084 1.238582 13.427939 -62.446295 16.953347 3.821346 -0.876527 -3.915995 8.780773 -0.421022 -1.826994 8.771223 -0.610986 -1.808260 -1.163907 8.584699 -7.957611 -9.464537 38.659444 -14.059033 -0.000000 -0.000001 -0.000001 1.008170 0.368261 -10.254986 -56.645539 -2.858878 -27.470360 0.000005 -43.934888 -0.000011 -22.904073 2.632561 -1.865018 8.808539 16.047036 -3.522851 9.281898 29.460378 1.375866 2.069965 12.309495 3.416058 0.000001 -0.000001 -0.000003 0.166705 1.509019 -12.608630 0.166758 1.508992 -12.608608 0.041795 0.759097 -6.303222 -0.000000 0.000002 0.000001 0.166304 1.507131 -12.592620 0.167158 1.510872 -12.624628 0.041783 0.759098 -6.303217 -0.000001 -0.000001 0.000002 0.166705 1.509019 -12.608632 0.166758 1.508992 -12.608607 0.041795 0.759098 -6.303214 -0.000001 -0.000000 -0.000001 1.037359 5.469123 -12.151223 0.162233 -2.546793 -13.107107 0.041790 0.759104 -6.303213 0.000002 0.000000 0.000001 3.015954 6.727720 11.419471 -59.681045 61.681383 75.414673 0.002448 93.269081 -0.002420 -6.655890 1.220649 -10.227463 16.092843 -1.956981 7.389338 38.850464 -40.010999 9.787814 13.450195 -17.209630 -0.499298 -0.000001 0.000001 0.000000 7.607985 -6.917006 95.461811 7.607966 -6.917000 95.461818 2.260414 -5.134298 47.500667 -0.000001 0.000001 -0.000001 7.607985 -6.917006 95.461811 7.607973 -6.917003 95.461825 2.260399 -5.134307 47.500656 0.000001 -0.000001 -0.000000 7.607989 -6.917001 95.461818 7.607966 -6.917005 95.461818 2.260413 -5.134300 47.500667 -0.000001 -0.000001 0.000000 7.607985 -6.917006 95.461811 7.607980 -6.917010 95.461818 2.260408 -5.134295 47.500663 -0.000003 -0.000001 -0.000001 -59.576544 11.375156 42.595078 42.944094 2.566972 -0.961860 15.123210 -1.050971 -18.531447 0.006026 -0.000008 0.000006 0.000000 0.000001 0.000000 -40.713248 5.890747 -20.187213 70.520344 5.536344 1.368977 -34.756668 -2.629605 8.101116 -0.005316 0.000046 -0.000003 -0.000000 -0.000001 0.000000 
